<svg xmlns="http://www.w3.org/2000/svg" xmlns:xlink="http://www.w3.org/1999/xlink" width="64.224" height="82.72800000000001"><path fill="black" stroke="black" d="M1.30 20.16L1.30 14.98L40.32 14.98L40.32 20.16ZM9.72 10.73L9.72 5.54L31.97 5.54L31.97 10.73ZM20.74 47.38C9.72 47.38 4.68 41.76 4.68 35.42C4.68 29.16 9.72 23.54 20.74 23.54C31.75 23.54 36.79 29.16 36.79 35.42C36.79 41.76 31.75 47.38 20.74 47.38ZM20.74 42.34C27.79 42.34 30.60 38.88 30.60 35.42C30.60 31.97 27.86 28.51 20.74 28.51C13.61 28.51 10.87 31.97 10.87 35.42C10.87 38.88 13.68 42.34 20.74 42.34ZM63.50 33.05L53.14 33.05L53.14 55.80L46.94 55.80L46.94 5.04L53.14 5.04L53.14 27.58L63.50 27.58ZM54.58 69.48L12.82 69.48L12.82 53.71L19.08 53.71L19.08 64.08L54.58 64.08Z"/></svg>